SplineFontDB: 3.2
FontName: UnicodiaHan
FullName: UnicodiaHan
FamilyName: UnicodiaHan
Weight: Regular
Copyright: Copyright (c) 2022-2025, Mikhail Merkuryev
UComments: "2022-9-30: Created with FontForge (http://fontforge.org)"
Version: 2.10.1
ItalicAngle: 0
UnderlinePosition: -100
UnderlineWidth: 50
Ascent: 800
Descent: 200
InvalidEm: 0
LayerCount: 2
Layer: 0 1 "Back" 1
Layer: 1 1 "Fore" 0
XUID: [1021 59 1751208496 28364]
FSType: 0
OS2Version: 0
OS2_WeightWidthSlopeOnly: 0
OS2_UseTypoMetrics: 1
CreationTime: 1664568655
ModificationTime: 1746203614
PfmFamily: 17
TTFWeight: 400
TTFWidth: 5
LineGap: 90
VLineGap: 0
OS2TypoAscent: 900
OS2TypoAOffset: 0
OS2TypoDescent: -100
OS2TypoDOffset: 0
OS2TypoLinegap: 90
OS2WinAscent: 900
OS2WinAOffset: 0
OS2WinDescent: 100
OS2WinDOffset: 0
HheadAscent: 900
HheadAOffset: 0
HheadDescent: 100
HheadDOffset: 0
OS2Vendor: 'PfEd'
OS2UnicodeRanges: 00000000.2a000000.00000000.00000000
MarkAttachClasses: 1
DEI: 91125
LangName: 1033
GaspTable: 1 65535 15 1
Encoding: Custom
UnicodeInterp: none
NameList: AGL For New Fonts
DisplaySize: -48
AntiAlias: 1
FitToEm: 0
WinInfo: 0 27 13
BeginPrivate: 0
EndPrivate
TeXData: 1 0 0 346030 173015 115343 0 1048576 115343 783286 444596 497025 792723 393216 433062 380633 303038 157286 324010 404750 52429 2506097 1059062 262144
BeginChars: 28 28

StartChar: u1AFF0
Encoding: 0 110576 0
Width: 640
VWidth: 1040
Flags: W
LayerCount: 2
Fore
SplineSet
513 853 m 1,0,-1
 535 832 l 1,1,2
 506 596 506 596 412 364 c 0,3,4
 306 103 306 103 146 -53 c 1,5,-1
 95 2 l 1,6,7
 300 202 300 202 443 630 c 0,8,9
 482 746 482 746 513 853 c 1,0,-1
EndSplineSet
Validated: 1
EndChar

StartChar: u1AFF1
Encoding: 1 110577 1
Width: 640
VWidth: 1040
Flags: W
LayerCount: 2
Fore
SplineSet
513 -53 m 1,0,1
 436 214 436 214 354 400 c 0,2,3
 241 655 241 655 95 798 c 1,4,-1
 146 853 l 1,5,6
 306 694 306 694 412 435 c 0,7,8
 506 204 506 204 535 -32 c 1,9,-1
 513 -53 l 1,0,1
EndSplineSet
Validated: 1
EndChar

StartChar: u1AFF2
Encoding: 2 110578 2
Width: 640
VWidth: 1040
Flags: W
LayerCount: 2
Fore
SplineSet
132 240 m 1,0,1
 132 355 132 355 163 431.5 c 128,-1,2
 194 508 194 508 232 536 c 0,3,4
 283 574 283 574 348.5 574 c 128,-1,5
 414 574 414 574 454 522 c 0,6,7
 478 492 478 492 478 443.5 c 128,-1,8
 478 395 478 395 460 367 c 0,9,10
 430 320 430 320 348 308 c 0,11,12
 314 302 314 302 278 297 c 0,13,14
 195 285 195 285 163 240 c 1,15,-1
 132 240 l 1,0,1
EndSplineSet
Validated: 1
EndChar

StartChar: u1AFF3
Encoding: 3 110579 3
Width: 640
VWidth: 1040
Flags: W
LayerCount: 2
Fore
SplineSet
235 400 m 1,0,1
 417 192 417 192 465 -32 c 1,2,-1
 443 -53 l 1,3,4
 354 174 354 174 175 353 c 0,5,6
 145 383 145 383 145 389 c 2,7,-1
 145 409 l 2,8,9
 145 416 145 416 175 447 c 128,-1,10
 205 478 205 478 252 532 c 0,11,12
 370 668 370 668 443 853 c 1,13,-1
 465 832 l 1,14,15
 417 608 417 608 235 400 c 1,0,1
EndSplineSet
Validated: 1
EndChar

StartChar: u1AFF5
Encoding: 4 110581 4
Width: 640
VWidth: 1040
Flags: W
LayerCount: 2
Fore
SplineSet
325 -60 m 1,0,-1
 305 -60 l 1,1,-1
 270 400 l 1,2,-1
 305 860 l 1,3,-1
 325 860 l 1,4,-1
 360 400 l 1,5,-1
 325 -60 l 1,0,-1
EndSplineSet
Validated: 1
EndChar

StartChar: u1AFF6
Encoding: 5 110582 5
Width: 640
VWidth: 1040
Flags: W
LayerCount: 2
Fore
SplineSet
125 593 m 1,0,1
 125 593 125 593 134 593 c 0,2,3
 270 592 270 592 364.5 532.5 c 128,-1,4
 459 473 459 473 459 371 c 0,5,6
 459 305 459 305 408 269 c 0,7,8
 378 247 378 247 329 247 c 128,-1,9
 280 247 280 247 252 265 c 128,-1,10
 224 283 224 283 211 312 c 128,-1,11
 198 341 198 341 192.5 376.5 c 128,-1,12
 187 412 187 412 182 448 c 0,13,14
 170 532 170 532 125 562 c 1,15,-1
 125 593 l 1,0,1
EndSplineSet
Validated: 1
EndChar

StartChar: u1AFF7
Encoding: 6 110583 6
Width: 640
VWidth: 1040
Flags: W
LayerCount: 2
Fore
SplineSet
207 860 m 1,0,-1
 227 860 l 1,1,2
 235 771 235 771 235 707.5 c 128,-1,3
 235 644 235 644 232 344 c 0,4,5
 232 264 232 264 237 201 c 1,6,7
 290 232 290 232 334.5 232 c 128,-1,8
 379 232 379 232 412.5 213 c 128,-1,9
 446 194 446 194 465.5 161.5 c 128,-1,10
 485 129 485 129 485 91 c 0,11,12
 485 21 485 21 426 -24 c 0,13,14
 388 -53 388 -53 342 -53 c 0,15,16
 275 -53 275 -53 220 8 c 128,-1,17
 165 69 165 69 165 319 c 128,-1,18
 165 569 165 569 207 860 c 1,0,-1
410 90 m 0,19,20
 410 122 410 122 378 146 c 0,21,22
 363 157 363 157 343 157 c 0,23,24
 341 157 341 157 340 157 c 0,25,26
 295 157 295 157 247 121 c 1,27,28
 256 82 256 82 271 64 c 0,29,30
 307 23 307 23 342.5 23 c 128,-1,31
 378 23 378 23 400 59 c 0,32,33
 410 77 410 77 410 90 c 0,19,20
EndSplineSet
Validated: 1
EndChar

StartChar: u1AFF8
Encoding: 7 110584 7
Width: 640
VWidth: 1040
Flags: W
LayerCount: 2
Fore
SplineSet
505 853 m 1,0,-1
 535 850 l 1,1,2
 425 731 425 731 332 552 c 128,-1,3
 239 373 239 373 194 227 c 1,4,5
 214 230 214 230 241.5 230 c 128,-1,6
 269 230 269 230 304 214 c 128,-1,7
 339 198 339 198 360 163.5 c 128,-1,8
 381 129 381 129 381 88.5 c 128,-1,9
 381 48 381 48 358 12 c 0,10,11
 317 -53 317 -53 232 -53 c 0,12,13
 181 -53 181 -53 145 -20 c 0,14,15
 95 28 95 28 95 91 c 128,-1,16
 95 154 95 154 140.5 287 c 128,-1,17
 186 420 186 420 284 583.5 c 128,-1,18
 382 747 382 747 505 853 c 1,0,-1
306 95 m 0,19,20
 306 154 306 154 226 154 c 0,21,22
 210 154 210 154 198 152 c 2,23,-1
 174 150 l 1,24,25
 169 125 169 125 169 105 c 0,26,27
 169 60 169 60 190.5 41 c 128,-1,28
 212 22 212 22 232.5 22 c 128,-1,29
 253 22 253 22 270 31 c 0,30,31
 306 50 306 50 306 95 c 0,19,20
EndSplineSet
Validated: 1
EndChar

StartChar: u1AFF9
Encoding: 8 110585 8
Width: 640
VWidth: 1040
Flags: W
LayerCount: 2
Fore
SplineSet
350 619 m 1,0,1
 293 568 293 568 233 568 c 0,2,3
 202 568 202 568 170.5 583.5 c 128,-1,4
 139 599 139 599 117 633.5 c 128,-1,5
 95 668 95 668 95 708.5 c 128,-1,6
 95 749 95 749 114.5 781.5 c 128,-1,7
 134 814 134 814 167 833.5 c 128,-1,8
 200 853 200 853 238 853 c 0,9,10
 294 853 294 853 346 802 c 0,11,12
 382 766 382 766 431.5 594 c 128,-1,13
 481 422 481 422 518 132 c 0,14,15
 529 46 529 46 535 -32 c 1,16,-1
 513 -53 l 1,17,18
 492 30 492 30 472 122 c 0,19,20
 386 508 386 508 350 619 c 1,0,1
294 747 m 0,21,22
 264 778 264 778 232 778 c 0,23,24
 216 778 216 778 201 766.5 c 128,-1,25
 186 755 186 755 178 739 c 128,-1,26
 170 723 170 723 170 709.5 c 128,-1,27
 170 696 170 696 177 678 c 0,28,29
 191 642 191 642 225.5 642 c 128,-1,30
 260 642 260 642 305 679 c 1,31,-1
 324 695 l 1,32,33
 309 734 309 734 294 747 c 0,21,22
EndSplineSet
Validated: 1
EndChar

StartChar: u1AFFA
Encoding: 9 110586 9
Width: 640
VWidth: 1040
Flags: W
LayerCount: 2
Fore
SplineSet
122 240 m 1,0,1
 122 380 122 380 182 475 c 0,2,3
 249 581 249 581 351 581 c 0,4,5
 422 581 422 581 463 528 c 0,6,7
 488 496 488 496 488 444.5 c 128,-1,8
 488 393 488 393 468.5 364 c 128,-1,9
 449 335 449 335 417.5 322 c 128,-1,10
 386 309 386 309 348 304 c 128,-1,11
 310 299 310 299 272.5 294.5 c 128,-1,12
 235 290 235 290 203.5 278.5 c 128,-1,13
 172 267 172 267 153 240 c 1,14,-1
 122 240 l 1,0,1
169 312 m 1,15,16
 192 337 192 337 223.5 347.5 c 128,-1,17
 255 358 255 358 288.5 364 c 128,-1,18
 322 370 322 370 350 376 c 0,19,20
 413 390 413 390 413 444 c 0,21,22
 413 475 413 475 392 490.5 c 128,-1,23
 371 506 371 506 338.5 506 c 128,-1,24
 306 506 306 506 269 476 c 0,25,26
 202 425 202 425 169 312 c 1,15,16
EndSplineSet
Validated: 1
EndChar

StartChar: u1AFFB
Encoding: 10 110587 10
Width: 640
VWidth: 1040
Flags: W
LayerCount: 2
Fore
SplineSet
411 400 m 1,0,1
 502 247 502 247 535 -32 c 1,2,-1
 513 -53 l 1,3,4
 438 206 438 206 364 335 c 1,5,6
 298 258 298 258 224 258 c 0,7,8
 187 258 187 258 157.5 277.5 c 128,-1,9
 128 297 128 297 111.5 329.5 c 128,-1,10
 95 362 95 362 95 400 c 128,-1,11
 95 438 95 438 111.5 470.5 c 128,-1,12
 128 503 128 503 157.5 522.5 c 128,-1,13
 187 542 187 542 224 542 c 0,14,15
 298 542 298 542 364 465 c 1,16,17
 438 594 438 594 513 853 c 1,18,-1
 535 832 l 1,19,20
 502 553 502 553 411 400 c 1,0,1
193 344 m 0,21,22
 205 332 205 332 223 332 c 128,-1,23
 241 332 241 332 268 349 c 128,-1,24
 295 366 295 366 321 400 c 1,25,26
 297 432 297 432 270.5 450 c 128,-1,27
 244 468 244 468 225 468 c 128,-1,28
 206 468 206 468 194 456 c 0,29,30
 170 433 170 433 170 400 c 128,-1,31
 170 367 170 367 193 344 c 0,21,22
EndSplineSet
Validated: 1
EndChar

StartChar: u1AFFD
Encoding: 11 110589 11
Width: 640
VWidth: 1040
Flags: W
LayerCount: 2
Fore
SplineSet
185 400 m 1,0,1
 165 465 165 465 165 573 c 128,-1,2
 165 681 165 681 184 860 c 1,3,-1
 204 860 l 1,4,5
 220 732 220 732 225.5 641.5 c 128,-1,6
 231 551 231 551 240 490 c 1,7,8
 299 543 299 543 357 543 c 0,9,10
 386 543 386 543 415.5 527.5 c 128,-1,11
 445 512 445 512 465 477 c 128,-1,12
 485 442 485 442 485 400 c 128,-1,13
 485 358 485 358 465 323 c 128,-1,14
 445 288 445 288 415.5 272.5 c 128,-1,15
 386 257 386 257 357 257 c 0,16,17
 299 257 299 257 240 310 c 1,18,19
 231 249 231 249 225.5 158.5 c 128,-1,20
 220 68 220 68 204 -60 c 1,21,-1
 184 -60 l 1,22,23
 165 119 165 119 165 227 c 128,-1,24
 165 335 165 335 185 400 c 1,0,1
410 400 m 128,-1,26
 410 414 410 414 403 432 c 0,27,28
 388 468 388 468 357 468 c 128,-1,29
 326 468 326 468 288 432 c 0,30,31
 275 420 275 420 264 400 c 1,32,33
 275 380 275 380 300.5 356 c 128,-1,34
 326 332 326 332 357 332 c 128,-1,35
 388 332 388 332 403 368 c 0,36,25
 410 386 410 386 410 400 c 128,-1,26
EndSplineSet
Validated: 1
EndChar

StartChar: u1AFFE
Encoding: 12 110590 12
Width: 640
VWidth: 1040
Flags: W
LayerCount: 2
Fore
SplineSet
197 556 m 1,0,1
 222 533 222 533 232.5 501.5 c 128,-1,2
 243 470 243 470 248.5 437 c 128,-1,3
 254 404 254 404 260 376 c 0,4,5
 274 312 274 312 331 312 c 0,6,7
 360 312 360 312 375.5 333 c 128,-1,8
 391 354 391 354 391 383 c 0,9,10
 391 432 391 432 338.5 481.5 c 128,-1,11
 286 531 286 531 197 556 c 1,0,1
125 603 m 1,12,-1
 141 603 l 2,13,14
 267 603 267 603 360 544 c 0,15,16
 466 476 466 476 466 374 c 0,17,18
 466 303 466 303 413 262 c 0,19,20
 381 237 381 237 329.5 237 c 128,-1,21
 278 237 278 237 249 256.5 c 128,-1,22
 220 276 220 276 207 307.5 c 128,-1,23
 194 339 194 339 189 377 c 128,-1,24
 184 415 184 415 179.5 452.5 c 128,-1,25
 175 490 175 490 163.5 522 c 128,-1,26
 152 554 152 554 125 572 c 1,27,-1
 125 603 l 1,12,-1
EndSplineSet
Validated: 1
EndChar

StartChar: u1B000
Encoding: 13 110592 13
Width: 740
Flags: W
LayerCount: 2
Fore
SplineSet
100 -45 m 1,0,-1
 100 39 l 1,1,2
 295 54 295 54 417 153 c 0,3,4
 551 261 551 261 553 515 c 1,5,-1
 553 562 l 1,6,-1
 29 562 l 1,7,-1
 29 645 l 1,8,-1
 287 645 l 1,9,-1
 287 787 l 1,10,-1
 372 787 l 1,11,-1
 372 645 l 1,12,-1
 639 645 l 1,13,-1
 639 512 l 1,14,15
 636 229 636 229 482 97.5 c 128,-1,16
 328 -34 328 -34 100 -45 c 1,0,-1
EndSplineSet
Validated: 1
EndChar

StartChar: u1B001
Encoding: 14 110593 14
Width: 848
Flags: W
LayerCount: 2
Fore
SplineSet
193 744 m 1,0,1
 165 546 165 546 165 370 c 128,-1,2
 165 194 165 194 199 -15 c 1,3,-1
 113 -15 l 1,4,5
 86 175 86 175 84 367 c 1,6,7
 86 545 86 545 110 744 c 1,8,-1
 193 744 l 1,0,1
564 117 m 1,9,10
 635 115 635 115 703 107 c 1,11,-1
 703 32 l 1,12,13
 516 44 516 44 423 44 c 128,-1,14
 330 44 330 44 285 37 c 1,15,-1
 285 120 l 1,16,17
 406 120 406 120 496 163 c 0,18,19
 666 243 666 243 666 417 c 0,20,21
 666 462 666 462 645 501.5 c 128,-1,22
 624 541 624 541 578 565.5 c 128,-1,23
 532 590 532 590 442.5 590 c 128,-1,24
 353 590 353 590 285 563 c 1,25,-1
 285 651 l 1,26,27
 346 670 346 670 447.5 670 c 128,-1,28
 549 670 549 670 615 642.5 c 128,-1,29
 681 615 681 615 720 559 c 128,-1,30
 759 503 759 503 759 417 c 0,31,32
 759 218 759 218 564 117 c 1,9,10
EndSplineSet
Validated: 1
EndChar

StartChar: u1B11F
Encoding: 15 110879 15
Width: 791
Flags: W
LayerCount: 2
Fore
SplineSet
331 -43 m 1,0,-1
 331 47 l 1,1,2
 417 73 417 73 453.5 148 c 128,-1,3
 490 223 490 223 491 367 c 1,4,-1
 326 367 l 1,5,-1
 326 454 l 1,6,-1
 491 454 l 1,7,-1
 491 661 l 1,8,-1
 346 661 l 1,9,-1
 346 748 l 1,10,-1
 716 748 l 1,11,-1
 716 661 l 1,12,-1
 581 661 l 1,13,-1
 581 454 l 1,14,-1
 736 454 l 1,15,-1
 736 367 l 1,16,-1
 581 367 l 1,17,18
 581 232 581 232 547 143.5 c 128,-1,19
 513 55 513 55 456 9.5 c 128,-1,20
 399 -36 399 -36 331 -43 c 1,0,-1
204 744 m 1,21,22
 177 553 177 553 177 373.5 c 128,-1,23
 177 194 177 194 211 -15 c 1,24,-1
 124 -15 l 1,25,26
 97 191 97 191 95 367 c 0,27,28
 97 526 97 526 121 744 c 1,29,-1
 204 744 l 1,21,22
EndSplineSet
Validated: 1
EndChar

StartChar: u1B120
Encoding: 16 110880 16
Width: 649
Flags: W
LayerCount: 2
Fore
SplineSet
83 -50 m 1,0,-1
 -24 -50 l 1,1,2
 -3 -8 -3 -8 60 77 c 128,-1,3
 123 162 123 162 184 220 c 1,4,-1
 184 766 l 1,5,-1
 271 766 l 1,6,-1
 271 296 l 1,7,8
 421 415 421 415 605 491 c 1,9,-1
 605 401 l 1,10,11
 393 309 393 309 240 158 c 0,12,13
 153 72 153 72 83 -50 c 1,0,-1
EndSplineSet
Validated: 1
EndChar

StartChar: u1B121
Encoding: 17 110881 17
Width: 712
Flags: W
LayerCount: 2
Fore
SplineSet
649 7 m 1,0,-1
 41 7 l 1,1,-1
 41 95 l 1,2,-1
 342 95 l 1,3,-1
 342 477 l 1,4,5
 192 358 192 358 8 282 c 1,6,-1
 8 372 l 1,7,8
 100 412 100 412 193.5 471 c 128,-1,9
 287 530 287 530 373.5 616 c 128,-1,10
 460 702 460 702 530 822 c 1,11,-1
 637 822 l 1,12,13
 630 807 630 807 609 775 c 128,-1,14
 588 743 588 743 559 703 c 128,-1,15
 530 663 530 663 496 623.5 c 128,-1,16
 462 584 462 584 429 553 c 1,17,-1
 429 95 l 1,18,-1
 649 95 l 1,19,-1
 649 7 l 1,0,-1
EndSplineSet
Validated: 1
EndChar

StartChar: u1B122
Encoding: 18 110882 18
Width: 734
Flags: W
LayerCount: 2
Fore
SplineSet
278 -52 m 0,0,1
 236 -52 236 -52 205 -45 c 1,2,-1
 202 41 l 1,3,4
 235 35 235 35 278.5 35 c 128,-1,5
 322 35 322 35 344.5 54.5 c 128,-1,6
 367 74 367 74 367 260 c 2,7,-1
 367 383 l 1,8,-1
 43 383 l 1,9,-1
 43 465 l 1,10,-1
 367 465 l 1,11,-1
 367 664 l 1,12,-1
 74 664 l 1,13,-1
 74 748 l 1,14,-1
 641 748 l 1,15,-1
 641 664 l 1,16,-1
 454 664 l 1,17,-1
 454 465 l 1,18,-1
 671 465 l 1,19,-1
 671 383 l 1,20,-1
 454 383 l 1,21,-1
 454 254 l 2,22,23
 454 196 454 196 451 106.5 c 128,-1,24
 448 17 448 17 413 -12 c 0,25,26
 364 -52 364 -52 278 -52 c 0,0,1
EndSplineSet
Validated: 1
EndChar

StartChar: u1B132
Encoding: 19 110898 19
Width: 638
Flags: W
LayerCount: 2
Fore
SplineSet
397 401 m 1,0,-1
 303 401 l 1,1,-1
 390 482 l 1,2,-1
 109 482 l 1,3,-1
 109 559 l 1,4,-1
 516 559 l 1,5,-1
 516 500 l 1,6,-1
 397 401 l 1,0,-1
542 -31 m 1,7,8
 443 -45 443 -45 328 -45 c 0,9,10
 225 -45 225 -45 168 -18 c 0,11,12
 97 15 97 15 97 109 c 0,13,14
 97 177 97 177 154 232 c 1,15,-1
 240 232 l 1,16,17
 174 166 174 166 174 120 c 0,18,19
 174 91 174 91 186 72 c 0,20,21
 210 36 210 36 335 32 c 0,22,23
 452 32 452 32 542 49 c 1,24,-1
 542 -31 l 1,7,8
EndSplineSet
Validated: 1
EndChar

StartChar: u1B150
Encoding: 20 110928 20
Width: 651
Flags: W
LayerCount: 2
Fore
SplineSet
550 88 m 1,0,1
 562 79 562 79 579 62 c 1,2,-1
 577 -23 l 1,3,4
 549 3 549 3 525 23 c 1,5,6
 502 -22 502 -22 469 -43.5 c 128,-1,7
 436 -65 436 -65 384 -65 c 0,8,9
 290 -65 290 -65 290 43 c 0,10,11
 290 88 290 88 319.5 116.5 c 128,-1,12
 349 145 349 145 396 145 c 128,-1,13
 443 145 443 145 489 125 c 1,14,15
 494 165 494 165 494 192 c 0,16,17
 494 315 494 315 363 335 c 1,18,19
 333 197 333 197 264 84.5 c 128,-1,20
 195 -28 195 -28 134 -28 c 128,-1,21
 73 -28 73 -28 51 10.5 c 128,-1,22
 29 49 29 49 29 110 c 0,23,24
 29 225 29 225 112 311.5 c 128,-1,25
 195 398 195 398 302 404 c 1,26,27
 309 455 309 455 311 496 c 1,28,-1
 91 496 l 1,29,-1
 91 570 l 1,30,-1
 390 570 l 1,31,32
 387 479 387 479 375 403 c 1,33,34
 490 390 490 390 540 308 c 0,35,36
 566 264 566 264 566 200 c 128,-1,37
 566 136 566 136 550 88 c 1,0,1
134 48 m 0,38,39
 165 48 165 48 216.5 139 c 128,-1,40
 268 230 268 230 290 337 c 1,41,42
 241 331 241 331 197.5 298 c 128,-1,43
 154 265 154 265 127 216.5 c 128,-1,44
 100 168 100 168 100 116 c 0,45,46
 100 48 100 48 134 48 c 0,38,39
346 43 m 0,47,48
 346 -2 346 -2 394.5 -2 c 128,-1,49
 443 -2 443 -2 471 62 c 1,50,51
 425 88 425 88 391 88 c 0,52,53
 348 88 348 88 346 43 c 0,47,48
EndSplineSet
Validated: 1
EndChar

StartChar: u1B151
Encoding: 21 110929 21
Width: 668
Flags: W
LayerCount: 2
Fore
SplineSet
198 28 m 1,0,1
 238 38 238 38 262.5 38 c 128,-1,2
 287 38 287 38 311.5 26 c 128,-1,3
 336 14 336 14 373.5 14 c 128,-1,4
 411 14 411 14 460 40 c 1,5,-1
 462 -26 l 1,6,7
 398 -56 398 -56 361 -56 c 128,-1,8
 324 -56 324 -56 296 -44 c 0,9,10
 225 -13 225 -13 195 -12 c 0,11,12
 185 -12 185 -12 174 -14 c 1,13,-1
 49 -67 l 1,14,-1
 49 6 l 1,15,16
 164 61 164 61 222 108 c 1,17,18
 134 130 134 130 118 164 c 0,19,20
 111 178 111 178 111 192 c 0,21,22
 111 233 111 233 151 263.5 c 128,-1,23
 191 294 191 294 267 294 c 0,24,25
 377 294 377 294 377 224 c 0,26,27
 377 186 377 186 348 159 c 1,28,29
 427 166 427 166 461.5 196.5 c 128,-1,30
 496 227 496 227 496 268 c 0,31,32
 496 360 496 360 352.5 360 c 128,-1,33
 209 360 209 360 41 243 c 1,34,-1
 41 323 l 1,35,-1
 383 509 l 1,36,-1
 101 507 l 1,37,-1
 101 576 l 1,38,-1
 490 576 l 1,39,-1
 490 503 l 1,40,-1
 335 410 l 1,41,42
 368 413 368 413 396 413 c 0,43,44
 572 413 572 413 572 274 c 0,45,46
 572 198 572 198 514.5 147.5 c 128,-1,47
 457 97 457 97 343 97 c 0,48,49
 323 97 323 97 303 99 c 1,50,51
 253 58 253 58 198 28 c 1,0,1
275 161 m 1,52,53
 303 193 303 193 303 209 c 0,54,55
 303 243 303 243 241.5 243 c 128,-1,56
 180 243 180 243 180 200 c 0,57,58
 180 170 180 170 275 161 c 1,52,53
596 -71 m 1,59,-1
 513 -71 l 1,60,61
 479 45 479 45 437 99 c 1,62,-1
 527 100 l 1,63,64
 572 30 572 30 596 -71 c 1,59,-1
EndSplineSet
Validated: 1
EndChar

StartChar: u1B152
Encoding: 22 110930 22
Width: 630
Flags: W
LayerCount: 2
Fore
SplineSet
228 72 m 0,0,1
 228 14 228 14 299 14 c 0,2,3
 301 14 301 14 304 14 c 2,4,-1
 512 16 l 1,5,-1
 512 -61 l 1,6,-1
 297 -61 l 2,7,8
 214 -61 214 -61 172 -8 c 0,9,10
 152 18 152 18 152 57 c 0,11,12
 152 117 152 117 188 161.5 c 128,-1,13
 224 206 224 206 317 251 c 1,14,15
 314 283 314 283 304 296.5 c 128,-1,16
 294 310 294 310 268 310 c 0,17,18
 226 310 226 310 153 243 c 0,19,20
 139 230 139 230 112.5 200 c 128,-1,21
 86 170 86 170 42 123 c 1,22,-1
 42 237 l 1,23,24
 76 270 76 270 114 317 c 128,-1,25
 152 364 152 364 191 443 c 1,26,-1
 45 443 l 1,27,-1
 45 517 l 1,28,-1
 217 517 l 1,29,30
 235 566 235 566 242 600 c 1,31,-1
 321 600 l 1,32,33
 314 572 314 572 295 517 c 1,34,-1
 496 517 l 1,35,-1
 496 443 l 1,36,-1
 273 443 l 1,37,38
 250 390 250 390 226 349 c 1,39,40
 274 371 274 371 309.5 371 c 128,-1,41
 345 371 345 371 365 347 c 128,-1,42
 385 323 385 323 387 281 c 1,43,44
 515 343 515 343 557 358 c 1,45,-1
 557 276 l 1,46,47
 478 247 478 247 388 201 c 1,48,-1
 388 84 l 1,49,-1
 316 84 l 1,50,-1
 316 172 l 1,51,52
 280 153 280 153 254 129.5 c 128,-1,53
 228 106 228 106 228 72 c 0,0,1
EndSplineSet
Validated: 1
EndChar

StartChar: u1B155
Encoding: 23 110933 23
Width: 649
Flags: W
LayerCount: 2
Fore
SplineSet
538 -18 m 1,0,-1
 70 -18 l 1,1,-1
 70 61 l 1,2,-1
 457 61 l 1,3,-1
 457 472 l 1,4,-1
 70 472 l 1,5,-1
 70 551 l 1,6,-1
 538 551 l 1,7,-1
 538 -18 l 1,0,-1
EndSplineSet
Validated: 1
EndChar

StartChar: u1B164
Encoding: 24 110948 24
Width: 638
Flags: W
LayerCount: 2
Fore
SplineSet
451 -68 m 1,0,-1
 369 -68 l 1,1,-1
 369 71 l 1,2,-1
 27 71 l 1,3,-1
 27 152 l 1,4,-1
 120 152 l 1,5,-1
 120 407 l 1,6,-1
 56 407 l 1,7,-1
 56 487 l 1,8,-1
 369 487 l 1,9,-1
 369 588 l 1,10,-1
 451 588 l 1,11,-1
 451 487 l 1,12,-1
 539 487 l 1,13,-1
 539 407 l 1,14,-1
 451 407 l 1,15,-1
 451 152 l 1,16,-1
 550 152 l 1,17,-1
 550 71 l 1,18,-1
 451 71 l 1,19,-1
 451 -68 l 1,0,-1
194 407 m 1,20,-1
 194 152 l 1,21,-1
 369 152 l 1,22,-1
 369 407 l 1,23,-1
 194 407 l 1,20,-1
EndSplineSet
Validated: 1
EndChar

StartChar: u1B165
Encoding: 25 110949 25
Width: 601
Flags: W
LayerCount: 2
Fore
SplineSet
527 -18 m 1,0,-1
 21 -18 l 1,1,-1
 21 63 l 1,2,-1
 233 63 l 1,3,-1
 233 364 l 1,4,-1
 315 364 l 1,5,-1
 315 284 l 1,6,7
 410 360 410 360 436 470 c 1,8,-1
 37 470 l 1,9,-1
 37 551 l 1,10,-1
 516 551 l 1,11,-1
 516 448 l 1,12,13
 490 346 490 346 408 264 c 0,14,15
 368 224 368 224 315 198 c 1,16,-1
 315 63 l 1,17,-1
 527 63 l 1,18,-1
 527 -18 l 1,0,-1
EndSplineSet
Validated: 1
EndChar

StartChar: u1B166
Encoding: 26 110950 26
Width: 600
Flags: W
LayerCount: 2
Fore
SplineSet
88 -36 m 1,0,-1
 88 47 l 1,1,2
 130 56 130 56 180 74 c 0,3,4
 300 118 300 118 376 255 c 1,5,-1
 49 255 l 1,6,-1
 49 329 l 1,7,-1
 403 329 l 1,8,9
 418 391 418 391 418 483 c 1,10,-1
 33 483 l 1,11,-1
 33 560 l 1,12,-1
 500 560 l 1,13,-1
 500 462 l 2,14,15
 500 278 500 278 410 152 c 0,16,17
 308 8 308 8 88 -36 c 1,0,-1
EndSplineSet
Validated: 1
EndChar

StartChar: u1B167
Encoding: 27 110951 27
Width: 584
Flags: W
LayerCount: 2
Fore
SplineSet
235 477 m 1,0,-1
 23 477 l 1,1,-1
 23 556 l 1,2,-1
 235 556 l 1,3,-1
 235 477 l 1,0,-1
23 -40 m 1,4,-1
 23 43 l 1,5,6
 140 50 140 50 250 130 c 0,7,8
 383 226 383 226 445 414 c 1,9,-1
 527 414 l 1,10,11
 503 295 503 295 409.5 176.5 c 128,-1,12
 316 58 316 58 179 -1 c 0,13,14
 107 -32 107 -32 23 -40 c 1,4,-1
EndSplineSet
Validated: 1
EndChar
